<?xml version="1.0" encoding="utf-8"?>
<!-- Generator: Adobe Illustrator 25.2.3, SVG Export Plug-In . SVG Version: 6.00 Build 0)  -->
<svg version="1.1" id="Layer_1" xmlns="http://www.w3.org/2000/svg" xmlns:xlink="http://www.w3.org/1999/xlink" x="0px" y="0px"
	 viewBox="0 0 24.5 24.7" style="enable-background:new 0 0 24.5 24.7;" xml:space="preserve">
<style type="text/css">
	.st0{fill:#633001;}
	.st1{fill:#FEDC90;}
	.st2{fill:#D1884F;}
</style>
<path class="st0" d="M4.4,3.9C4,1.9,5.6,0,7.6,0c1.8,0,3.3,1.5,3.3,3.3v4c0.5,0,0.9,0,1.4,0c0.4,0,0.9,0,1.3,0v-4
	C13.6,1.5,15,0,16.8,0c2,0,3.6,1.9,3.2,3.9l-0.9,4.7c3,1.3,5.3,3.6,5.3,6.5v1.7c0,2.4-1.6,4.4-3.8,5.7c-2.2,1.4-5.2,2.2-8.5,2.2
	c-3.3,0-6.3-0.8-8.5-2.2C1.6,21.2,0,19.2,0,16.9v-1.7c0-2.9,2.3-5.2,5.3-6.5L4.4,3.9z M18,9.2l1-5.5C19.3,2.3,18.2,1,16.8,1
	c-1.3,0-2.3,1-2.3,2.3v5.1c-0.3,0-0.7-0.1-1-0.1c-0.4,0-0.9,0-1.3,0c-0.5,0-0.9,0-1.4,0.1c-0.3,0-0.7,0.1-1,0.1V3.3
	C9.9,2,8.9,1,7.6,1C6.2,1,5.1,2.3,5.4,3.7l1,5.6C3.2,10.4,1,12.6,1,15.1v1.7c0,3.8,5,6.9,11.2,6.9c6.2,0,11.2-3.1,11.2-6.9v-1.7
	C23.5,12.6,21.3,10.4,18,9.2z"/>
<path class="st1" d="M23.5,16.9c0,3.8-5,6.9-11.2,6.9C6,23.7,1,20.7,1,16.9v-1.7h22.5V16.9z"/>
<path class="st2" d="M5.4,3.7C5.1,2.3,6.2,1,7.6,1c1.3,0,2.3,1,2.3,2.3v5.1c0.8-0.1,1.6-0.2,2.4-0.2c0.8,0,1.6,0.1,2.3,0.1V3.3
	c0-1.3,1-2.3,2.3-2.3c1.4,0,2.5,1.3,2.2,2.7l-1,5.5c3.3,1.2,5.5,3.4,5.5,5.9c0,3.8-5,6.9-11.2,6.9C6,22,1,18.9,1,15.1
	c0-2.5,2.2-4.7,5.4-5.9L5.4,3.7z"/>
<path class="st0" d="M9.1,14.6c0,1-0.6,1.9-1.2,1.9s-1.2-0.8-1.2-1.9c0-1,0.6-1.9,1.2-1.9S9.1,13.6,9.1,14.6z"/>
<path class="st0" d="M17.7,14.6c0,1-0.6,1.9-1.2,1.9c-0.7,0-1.2-0.8-1.2-1.9c0-1,0.6-1.9,1.2-1.9C17.2,12.7,17.7,13.6,17.7,14.6z"/>
</svg>
