<svg xmlns="http://www.w3.org/2000/svg" viewBox="0 0 841.9 595.3"><g fill="#61DAFB">
<path d="M95,106.42c0,6.71,0,13.43,0,20.15a2,2,0,0,1-1.11,2Q76.2,138.75,58.56,149a1.76,1.76,0,0,1-2,0q-17.7-10.26-35.44-20.46a1.93,1.93,0,0,1-1.05-1.93q0-20.26,0-40.54A2.1,2.1,0,0,1,21.26,84Q38.9,73.87,56.5,63.68a1.85,1.85,0,0,1,2.1,0Q76.21,73.9,93.83,84A2.11,2.11,0,0,1,95,86.15C95,92.91,95,99.66,95,106.42ZM40.81,75.31l0,.25c4.06,0,8.13,0,12.19,0a36.84,36.84,0,0,1,8.1.78c18.66,4.16,28,22.17,22.84,39-3.75,12.22-12.44,19.2-24.92,21.37-5.65,1-11.42.32-17.13.46-.76,0-.7-.43-.7-.93,0-2.08,0-4.16,0-6.23,0-.88.29-1.05,1.09-1,3.76,0,7.52,0,11.28,0a26.48,26.48,0,0,0,7.8-1.13,22.59,22.59,0,0,0-6.78-44.18c-7,0-14.08,0-21.12,0-2.16,0-4.32,0-6.48,0-1.28,0-2.59,1-2.59,1.88q0,20.82,0,41.64a1.28,1.28,0,0,0,.64,1.14c1.14.86,2.43.6,3.68.67.71,0,1.08-.14,1-.92a4.31,4.31,0,0,1,0-.72q0-19.48,0-39c0-.91.18-1.24,1.16-1.19a53.3,53.3,0,0,0,5.51,0c1.15-.07,1.46.23,1.45,1.41,0,15.24,0,30.48-.05,45.71a2,2,0,0,0,1.21,2c3.21,1.78,6.36,3.66,9.54,5.49a2.26,2.26,0,0,0,1.09.46c4.84,0,9.67.13,14.4-1.2a35.76,35.76,0,0,0,26.49-38.15,34.66,34.66,0,0,0-10.25-22c-8.37-8.43-18.77-11.25-30.34-10.64a1.83,1.83,0,0,0-.77.28Z" transform="translate(-20.08 -63.23)"></path></g></svg>