<?xml version="1.0" encoding="utf-8"?>
<!-- Generator: Adobe Illustrator 25.2.3, SVG Export Plug-In . SVG Version: 6.00 Build 0)  -->
<svg version="1.1" id="Layer_1" xmlns="http://www.w3.org/2000/svg" xmlns:xlink="http://www.w3.org/1999/xlink" x="0px" y="0px"
	 viewBox="0 0 112.3 108.7" style="enable-background:new 0 0 112.3 108.7;" xml:space="preserve">
<style type="text/css">
	.st0{fill:#F0B90B;}
	.st1{fill:#FFFDFA;}
	.st2{opacity:0.1;}
	.st3{fill:none;stroke:#191326;stroke-width:3;}
	.st4{fill:url(#SVGID_1_);}
	.st5{fill:url(#SVGID_2_);}
</style>
<circle class="st0" cx="29" cy="29" r="29"/>
<path class="st1" d="M18.2,29l-4.4,4.5L9.3,29l4.5-4.5L18.2,29z M29,18.2l7.6,7.6l4.5-4.5l-7.6-7.6L29,9.3l-4.5,4.5l-7.6,7.6
	l4.5,4.5L29,18.2z M44.3,24.5L39.8,29l4.5,4.5l4.4-4.5L44.3,24.5z M29,39.8l-7.6-7.6l-4.4,4.5l7.6,7.6l4.4,4.4l4.5-4.5l7.6-7.6
	l-4.5-4.4L29,39.8z M29,33.5l4.5-4.5L29,24.5L24.5,29L29,33.5z"/>
<g class="st2">
	<circle class="st3" cx="29" cy="29" r="27.5"/>
</g>
<g>
	<linearGradient id="SVGID_1_" gradientUnits="userSpaceOnUse" x1="42.9407" y1="48.2417" x2="108.0585" y2="93.1339">
		<stop  offset="0" style="stop-color:#194BA0"/>
		<stop  offset="1" style="stop-color:#1C2232"/>
	</linearGradient>
	<path class="st4" d="M112.3,68.9C112.1,91,94.9,108,74.2,108.7C51.5,109.4,33.5,91,33.5,68.9c0-22.2,17.5-39.2,38-39.9
		C94,28.3,112.3,46.6,112.3,68.9z"/>
	
		<radialGradient id="SVGID_2_" cx="-495.841" cy="584.5255" r="124.3049" gradientTransform="matrix(0.2068 2.497845e-03 -2.896853e-03 0.2459 177.0653 -76.4705)" gradientUnits="userSpaceOnUse">
		<stop  offset="0" style="stop-color:#FFFFFF"/>
		<stop  offset="1" style="stop-color:#99C8FC"/>
	</radialGradient>
	<path class="st5" d="M71.4,75.4c0,3.4,0,6,0,8.7c0,0.7-0.2,1-0.9,1c-3.1,0-6.2,0-9.4,0c-0.7,0-0.9-0.2-0.9-0.9
		c0.2-3.2,0.2-6.4,0.2-9.6c0-1.4-0.2-2.7-0.5-4c-0.1-0.7-0.4-1.3-0.9-1.8c-0.8-0.9-2.3-0.8-3.1,0.3c-0.9,1.1-1.1,2.5-1.3,3.9
		c-0.3,2.4-0.2,4.8-0.1,7.2c0,1.4,0.1,2.9,0.1,4.3c0,0.6-0.2,0.7-0.7,0.7c-3.2,0-6.4,0-9.6,0c-0.5,0-0.7-0.1-0.7-0.7
		c-0.2-3.4-0.2-6.8-0.1-10.2c0.1-3.3,0.3-6.6,1.7-9.6c1.5-3.3,3.9-5.7,7.6-6.5c2.5-0.5,4.9,0.1,7.2,1.1c1.1,0.4,1,0.5,1.4-0.6
		c0.4-1.1,0.6-2.2,1-3.2c0.8-2.1,2.3-3.6,3.9-5c1.9-1.7,4.1-2.9,6.5-3.4c4-0.8,7.5,0,10.6,2.7c2.5,2.1,3.7,4.9,3.9,8.1
		c0.3,4.3,0,8.6,0.2,12.9c0.1,1.7,0.4,3.4,1.9,4.5c1.1,0.9,2.5,0.5,3.1-0.8c0.8-1.8,0.6-3.6,0.1-5.4c-0.2-0.6-0.1-0.9,0.4-1.2
		c2-1.2,4.2-1.9,6.4-2.7c0.5-0.2,0.7,0.3,0.9,0.6c0.9,1.4,1.4,3,1.5,4.6c0.3,3,0,5.9-1.5,8.6c-2.1,3.8-5.2,6.2-9.6,6.6
		c-4.3,0.5-7.9-1-10.7-4.2c-2-2.3-3-5-3.2-8c-0.3-3.5,0-7-0.1-10.6c0-0.6-0.1-1.2-0.3-1.8c-0.6-2.1-2.3-2-3.7-1
		c-1.2,0.9-1.3,2.2-1.4,3.6C71.1,67.7,71.7,71.9,71.4,75.4z"/>
</g>
</svg>
